Plot: After the birth of Renesmee, the Cullens gather other vampire clans in order to protect the child from a false allegation that puts the family in front of the Volturi.

MediaInfo 0.7.61:
General
Complete name                            : D:Sumerki.saga.rassvet.chast.2.2012.D.t.DVDRip.1400MB.avi
Format                                   : AVI
Format/Info                              : Audio Video Interleave
File size                                : 1.37 GiB
Duration                                 : 1h 55mn
Overall bit rate                         : 1 700 Kbps
Writing application                      : VirtualDubMod 1.5.10.2 (build 2540/release)
Writing library                          : VirtualDubMod build 2540/release

Video
ID                                       : 0
Format                                   : MPEG-4 Visual
Format profile                           : Advanced Simple@L5
Format settings, BVOP                    : 1
Format settings, QPel                    : No
Format settings, GMC                     : No warppoints
Format settings, Matrix                  : Default (H.263)
Codec ID                                 : XVID
Codec ID/Hint                            : XviD
Duration                                 : 1h 55mn
Bit rate                                 : 1 238 Kbps
Width                                    : 640 pixels
Height                                   : 272 pixels
Display aspect ratio                     : 2.35:1
Frame rate                               : 23.976 fps
Color space                              : YUV
Chroma subsampling                       : 4:2:0
Bit depth                                : 8 bits
Scan type                                : Progressive
Compression mode                         : Lossy
Bits/(Pixel*Frame)                       : 0.297
Stream size                              : 1 020 MiB (73%)
Writing library                          : XviD 1.2.1 (UTC 2008-12-04)

Audio #1
ID                                       : 1
Format                                   : MPEG Audio
Format version                           : Version 1
Format profile                           : Layer 3
Codec ID                                 : 55
Codec ID/Hint                            : MP3
Duration                                 : 1h 55mn
Bit rate mode                            : Constant
Bit rate                                 : 128 Kbps
Channel(s)                               : 2 channels
Sampling rate                            : 44.1 KHz
Compression mode                         : Lossy
Stream size                              : 105 MiB (8%)
Alignment                                : Split accross interleaves
Interleave, duration                     : 42 ms (1.00 video frame)
Interleave, preload duration             : 500 ms

Audio #2
ID                                       : 2
Format                                   : AC-3
Format/Info                              : Audio Coding 3
Mode extension                           : CM (complete main)
Format settings, Endianness              : Big
Codec ID                                 : 2000
Duration                                 : 1h 55mn
Bit rate mode                            : Constant
Bit rate                                 : 320 Kbps
Channel(s)                               : 6 channels
Channel positions                        : Front: L C R, Side: L R, LFE
Sampling rate                            : 48.0 KHz
Bit depth                                : 16 bits
Compression mode                         : Lossy
Stream size                              : 264 MiB (19%)
Alignment                                : Split accross interleaves
Interleave, duration                     : 42 ms (1.00 video frame)
Interleave, preload duration             : 500 ms

Screenshots: 
http://img593.imageshack.us/img593/6527/grabg.png 
http://img35.imageshack.us/img35/6114/grab3hw.png 
http://img268.imageshack.us/img268/8628/grab4pl.png 
http://img255.imageshack.us/img255/7127/grab5q.png 
http://img854.imageshack.us/img854/8/grab6oy.png 
http://img405.imageshack.us/img405/6835/grab7be.png 
http://img195.imageshack.us/img195/8150/grab8ud.png 
http://img542.imageshack.us/img542/2816/grab9j.png 
http://img801.imageshack.us/img801/7783/grab10n.png 
http://img209.imageshack.us/img209/2469/grab11rt.png 
http://img248.imageshack.us/img248/9648/grab12b.png